<svg width="157" height="43" viewBox="0 0 157 43" fill="none" xmlns="http://www.w3.org/2000/svg">
<path d="M8.16676 7.95558C5.98742 8.65705 4.15761 10.4521 3.56138 12.4327C3.17075 13.7944 3.17075 16.1464 3.56138 17.4875C4.34264 20.1077 6.02853 21.3456 11.1479 22.9961C15.0131 24.2547 16.2055 24.8942 16.9662 26.1322C17.8709 27.6589 17.5419 30.2791 16.2467 31.7852C14.9308 33.3326 12.7104 34.0135 10.2638 33.6214C7.05651 33.1057 4.63048 30.5886 3.54082 26.6479C3.33522 25.9465 3.10907 25.3894 3.00627 25.3894C2.92403 25.3894 2.8418 27.3081 2.8418 29.6395V33.8897L3.41746 33.7452C4.71272 33.4151 5.82294 33.4151 7.65271 33.7452C10.2844 34.2198 13.3683 34.096 15.0131 33.4564C16.5551 32.8581 18.2204 31.3313 18.94 29.8665C20.0091 27.6589 20.0708 24.461 19.0839 22.3978C18.5493 21.3043 17.1924 20.0251 15.8354 19.3237C15.2804 19.0349 13.3272 18.354 11.4768 17.7763C6.95372 16.394 5.72014 15.5893 5.30895 13.7325C4.85664 11.6899 5.90517 9.5855 7.85836 8.57455C8.90686 8.03816 9.29754 7.95558 10.7367 7.95558C12.0936 7.95558 12.5871 8.05877 13.43 8.47136C15.3831 9.42042 17.1307 11.6899 17.8709 14.2483L18.1381 15.1767L18.282 13.8356C18.3643 13.0929 18.4259 11.4011 18.4465 10.0394L18.4671 7.60488L17.912 7.76989C17.2541 7.97626 15.856 7.97626 11.888 7.79057C9.68816 7.66678 8.90686 7.70799 8.16676 7.95558Z" fill="white"/>
<path d="M52.245 7.95537C46.9817 9.37899 43.7539 14.3306 43.7539 20.974C43.7539 30.444 50.662 35.9733 59.4615 33.5593C61.4146 33.0229 61.538 33.0023 62.4837 33.3118C63.0183 33.4974 63.5117 33.6419 63.5734 33.6419C63.6351 33.6419 63.6967 31.8057 63.6967 29.5774C63.6967 27.3492 63.6351 25.5749 63.5734 25.6368C63.5117 25.6987 63.3267 26.297 63.1621 26.9572C62.4014 29.8457 60.6745 32.1564 58.4951 33.1467C56.7065 33.972 54.4654 33.972 52.759 33.188C50.8881 32.3215 49.9835 30.836 49.2433 27.4524C48.8732 25.7606 48.8321 24.7909 48.8321 20.4376C48.8321 15.0321 49.0377 13.2577 49.9423 11.1739C50.4358 10.0186 51.6282 8.80131 52.7795 8.30614C53.8281 7.85225 56.5214 7.87286 57.8989 8.34736C59.6259 8.94571 61.2501 10.5962 62.3809 12.907C62.8744 13.9386 63.2855 14.8877 63.2855 15.0321C63.2855 15.1765 63.3883 15.2796 63.4912 15.2796C63.6145 15.2796 63.6967 13.8973 63.6967 11.5659C63.6967 7.46019 63.7378 7.54277 62.3809 8.20295C61.7024 8.51244 61.5585 8.51244 59.5026 8.09984C56.9737 7.58399 53.8693 7.52209 52.245 7.95537Z" fill="white"/>
<path d="M74.2428 7.95537C68.9799 9.37899 65.752 14.3306 65.752 20.974C65.752 30.444 72.6603 35.9733 81.4597 33.5593C83.4124 33.0229 83.536 33.0023 84.4819 33.3118C85.0162 33.4974 85.5101 33.6419 85.5712 33.6419C85.633 33.6419 85.6949 31.8057 85.6949 29.5774C85.6949 27.3492 85.633 25.5749 85.5712 25.6368C85.5101 25.6987 85.3246 26.297 85.1605 26.9572C84.3994 29.8457 82.6727 32.1564 80.4933 33.1467C78.7047 33.972 76.4634 33.972 74.7573 33.188C72.8863 32.3215 71.9817 30.836 71.2412 27.4524C70.8713 25.7606 70.8302 24.7909 70.8302 20.4376C70.8302 15.0321 71.0358 13.2577 71.9404 11.1739C72.4336 10.0186 73.626 8.80131 74.7779 8.30614C75.826 7.85225 78.5192 7.87286 79.8971 8.34736C81.6238 8.94571 83.2483 10.5962 84.3788 12.907C84.8727 13.9386 85.2834 14.8877 85.2834 15.0321C85.2834 15.1765 85.3865 15.2796 85.4895 15.2796C85.6124 15.2796 85.6949 13.8973 85.6949 11.5659C85.6949 7.46019 85.7361 7.54277 84.3788 8.20295C83.7002 8.51244 83.5567 8.51244 81.5009 8.09984C78.9719 7.58399 75.8672 7.52209 74.2428 7.95537Z" fill="white"/>
<path d="M115.138 8.03801C111.849 9.27587 110.122 12.0818 110.43 15.7543C110.739 19.5092 112.712 21.2835 118.489 23.0373C122.601 24.2958 124.061 25.2449 124.554 26.9986C124.822 28.0301 124.822 28.6491 124.472 29.8045C123.814 31.9708 122.293 33.2499 119.888 33.642C115.693 34.3434 112.136 31.5994 110.677 26.5653C110.492 25.9257 110.245 25.3893 110.142 25.3893C110.039 25.3893 109.957 27.1636 109.957 29.6394V33.8896L110.533 33.7451C111.807 33.415 112.939 33.415 114.769 33.7245C120.525 34.7148 124.266 33.4563 126.096 29.9282C127.679 26.8335 127.042 22.2532 124.781 20.4583C123.691 19.5711 121.861 18.7046 120.031 18.1682C115.015 16.7239 113.637 16.0431 112.877 14.6814C111.952 13.0515 112.445 10.6788 113.966 9.31716C115.159 8.28552 116.001 7.97611 117.872 7.97611C119.271 7.95543 119.682 8.03801 120.689 8.53311C122.643 9.48217 124.678 12.2262 125.089 14.3925C125.398 16.0019 125.582 14.8052 125.582 11.3391V7.60473L125.131 7.76974C124.575 7.95543 122.827 7.95543 119.004 7.76974C116.536 7.64595 116.104 7.66663 115.138 8.03801Z" fill="white"/>
<path d="M134.61 7.9555C132.43 8.65698 130.6 10.452 130.004 12.4326C129.613 13.7943 129.613 16.1463 130.004 17.4874C130.786 20.1076 132.471 21.3455 137.591 22.996C141.456 24.2546 142.649 24.8942 143.409 26.1321C144.314 27.6588 143.985 30.2791 142.69 31.7852C141.374 33.3326 139.153 34.0134 136.707 33.6214C133.5 33.1056 131.074 30.5885 129.984 26.6479C129.778 25.9464 129.552 25.3893 129.449 25.3893C129.367 25.3893 129.285 27.3081 129.285 29.6394V33.8896L129.861 33.7452C131.094 33.4151 132.368 33.4151 133.993 33.7246C137.323 34.3641 140.572 34.0753 142.443 32.9612C145.177 31.3519 146.637 28.0715 146.143 24.6054C145.918 22.9135 145.301 21.6963 144.191 20.6646C142.937 19.5093 141.744 18.9522 137.92 17.7763C133.397 16.3939 132.163 15.5893 131.752 13.7324C131.3 11.6898 132.348 9.58543 134.301 8.57447C135.35 8.03808 135.74 7.9555 137.18 7.9555C138.516 7.9555 139.051 8.05869 139.873 8.47129C141.826 9.44102 143.553 11.6898 144.314 14.2482L144.581 15.1767L144.725 13.6292C144.787 12.7834 144.869 11.0709 144.889 9.83301L144.91 7.6048L144.355 7.76981C143.697 7.97618 142.299 7.97618 138.331 7.79049C136.131 7.6667 135.35 7.70792 134.61 7.9555Z" fill="white"/>
<path d="M149.351 8.18269C148.776 8.78098 148.611 9.97762 149.043 10.7823C149.351 11.3393 150.564 11.8345 151.305 11.6694C152.127 11.4838 152.929 10.4728 152.929 9.56495C152.929 7.85253 150.585 6.94476 149.351 8.18269ZM152.003 8.53339C152.764 9.62685 152.086 11.2156 150.873 11.2156C150.092 11.2156 149.228 10.3902 149.228 9.64753C149.228 8.18269 151.202 7.39864 152.003 8.53339Z" fill="white"/>
<path d="M150.419 8.61555C150.131 8.67745 150.049 8.92503 150.049 9.72969C150.049 10.2868 150.152 10.7406 150.255 10.7406C150.378 10.7406 150.46 10.555 150.46 10.328C150.46 10.1011 150.583 9.91538 150.748 9.91538C150.912 9.91538 151.118 10.1011 151.18 10.328C151.406 11.0501 151.653 10.7613 151.653 9.8122C151.632 9.1314 151.529 8.80124 151.262 8.67745C151.056 8.55373 150.872 8.49183 150.83 8.49183C150.789 8.51244 150.604 8.55373 150.419 8.61555ZM151.139 9.1933C151.159 9.29641 151.015 9.42021 150.83 9.4615C150.604 9.50278 150.46 9.3996 150.46 9.1933C150.46 8.84253 151.077 8.82192 151.139 9.1933Z" fill="white"/>
<path d="M21.039 8.20316C21.8408 8.24438 22.5398 8.38878 22.6221 8.53325C22.7043 8.67765 22.7865 12.7628 22.7865 17.6525C22.7865 22.6453 22.8894 27.1018 22.9922 27.8652C23.6501 32.0121 26.0967 33.9102 31.1132 34.1991C34.7317 34.4054 37.7745 33.5183 39.2548 31.8471C40.1594 30.7949 41.0229 28.8555 41.2696 27.2462C41.393 26.5035 41.4958 22.9754 41.4958 19.3855C41.4958 9.8124 41.7425 8.96653 44.6825 8.28567C45.2788 8.16187 44.2919 8.09998 41.2902 8.09998C37.4661 8.09998 37.1783 8.12058 38.1446 8.34756C39.4193 8.65705 39.7482 8.90463 40.2828 9.9568C40.8379 11.0503 41.0641 13.8562 41.0846 19.6125C41.0846 27.143 40.694 29.33 38.9875 31.2488C38.0007 32.4041 36.6848 33.1057 35.0195 33.4151C31.0104 34.1578 28.461 32.92 27.5975 29.8045C27.248 28.5048 27.2069 27.5557 27.2069 18.3745V8.36817L28.7488 8.24438C29.5917 8.18248 27.8853 8.14126 24.9453 8.14126C22.0053 8.14126 20.2372 8.18248 21.039 8.20316Z" fill="white"/>
<path d="M89.6025 8.24423L91.1445 8.36802L91.2056 20.7883L91.2468 33.2292L90.7949 33.3324C90.5277 33.3943 89.8078 33.4562 89.191 33.4974C88.5742 33.5387 92.4804 33.5799 97.8874 33.6006L107.694 33.6418V29.8456C107.694 27.7412 107.613 25.9875 107.51 25.9256C107.427 25.8637 106.852 26.9778 106.255 28.3808C104.529 32.5484 104.055 33.0229 101.588 33.2086C99.0187 33.3943 96.469 33.1879 96.0377 32.7547C95.7087 32.4246 95.6675 31.8263 95.6056 26.5239L95.5438 20.6439H97.8675C99.8202 20.6439 100.293 20.7058 100.869 21.0565C101.629 21.531 102.287 22.5213 102.472 23.4705C102.781 25.121 102.966 23.8418 102.966 20.1281C102.966 17.5903 102.884 16.1049 102.76 16.1049C102.658 16.1049 102.555 16.3731 102.555 16.6826C102.555 17.7141 101.712 19.0553 100.725 19.5916C99.9645 20.0043 99.4294 20.1074 97.682 20.19L95.5438 20.2931L95.6056 14.8051C95.6881 7.91407 95.4408 8.36802 99.121 8.36802C100.642 8.36802 102.02 8.47114 102.616 8.65683C104.179 9.11071 105.351 10.328 106.4 12.515C106.893 13.5465 107.284 14.4957 107.284 14.6401C107.284 14.7638 107.386 14.867 107.489 14.867C107.613 14.867 107.694 13.5878 107.694 11.4628V8.05854L97.8874 8.09976C92.4804 8.12044 88.759 8.18233 89.6025 8.24423Z" fill="white"/>
</svg>
