<svg width="230" height="50" viewBox="0 0 230 50" fill="none" xmlns="http://www.w3.org/2000/svg">
<path d="M8.16 41V16H0.44V11.2H21.24V16H13.64V41H8.16ZM30.2781 41.48C28.5981 41.48 27.1315 41.1067 25.8781 40.36C24.6515 39.6133 23.7048 38.5733 23.0381 37.24C22.3981 35.9067 22.0781 34.3467 22.0781 32.56V19.24H27.3181V32.12C27.3181 33.0267 27.4915 33.8267 27.8381 34.52C28.2115 35.1867 28.7315 35.72 29.3981 36.12C30.0915 36.4933 30.8648 36.68 31.7181 36.68C32.5715 36.68 33.3315 36.4933 33.9981 36.12C34.6648 35.72 35.1848 35.1733 35.5581 34.48C35.9315 33.7867 36.1181 32.96 36.1181 32V19.24H41.3581V41H36.3981V36.72L36.8381 37.48C36.3315 38.8133 35.4915 39.8133 34.3181 40.48C33.1715 41.1467 31.8248 41.48 30.2781 41.48ZM46.2291 41V10.72H51.4691V41H46.2291ZM56.3072 41V19.24H61.5472V41H56.3072ZM56.3072 16.8V11.2H61.5472V16.8H56.3072ZM66.3853 41V10.72H71.6253V30.56L69.6253 29.96L79.8653 19.24H86.3853L78.3453 28L86.5453 41H80.5453L73.4253 29.72L76.5453 29.08L69.9853 36.12L71.6253 32.92V41H66.3853ZM96.0713 41.48C94.5513 41.48 93.2313 41.2267 92.1113 40.72C90.9913 40.2133 90.1246 39.4933 89.5113 38.56C88.8979 37.6 88.5913 36.4933 88.5913 35.24C88.5913 34.04 88.8579 32.9733 89.3913 32.04C89.9246 31.08 90.7513 30.28 91.8713 29.64C92.9913 29 94.4046 28.5467 96.1113 28.28L103.231 27.12V31.12L97.1113 32.16C96.0713 32.3467 95.2979 32.68 94.7913 33.16C94.2846 33.64 94.0313 34.2667 94.0313 35.04C94.0313 35.7867 94.3113 36.3867 94.8713 36.84C95.4579 37.2667 96.1779 37.48 97.0312 37.48C98.1246 37.48 99.0846 37.2533 99.9113 36.8C100.765 36.32 101.418 35.6667 101.871 34.84C102.351 34.0133 102.591 33.1067 102.591 32.12V26.52C102.591 25.5867 102.218 24.8133 101.471 24.2C100.751 23.56 99.7913 23.24 98.5913 23.24C97.4713 23.24 96.4713 23.5467 95.5913 24.16C94.7379 24.7467 94.1113 25.5333 93.7113 26.52L89.4313 24.44C89.8579 23.2933 90.5246 22.3067 91.4313 21.48C92.3646 20.6267 93.4579 19.96 94.7113 19.48C95.9646 19 97.3246 18.76 98.7912 18.76C100.578 18.76 102.151 19.0933 103.511 19.76C104.871 20.4 105.925 21.3067 106.671 22.48C107.445 23.6267 107.831 24.9733 107.831 26.52V41H102.871V37.28L103.991 37.2C103.431 38.1333 102.765 38.92 101.991 39.56C101.218 40.1733 100.338 40.6533 99.3513 41C98.3646 41.32 97.2713 41.48 96.0713 41.48Z" fill="white"/>
<mask id="path-2-outside-1_416_7" maskUnits="userSpaceOnUse" x="123" y="10" width="105" height="33" fill="black">
<rect fill="white" x="123" y="10" width="105" height="33"/>
<path d="M124.08 41V11.2H133.84C136.933 11.2 139.613 11.8267 141.88 13.08C144.173 14.3067 145.947 16.04 147.2 18.28C148.453 20.52 149.08 23.12 149.08 26.08C149.08 29.0133 148.453 31.6133 147.2 33.88C145.947 36.12 144.173 37.8667 141.88 39.12C139.613 40.3733 136.933 41 133.84 41H124.08ZM128.8 36.8H133.92C136.027 36.8 137.853 36.36 139.4 35.48C140.973 34.6 142.187 33.36 143.04 31.76C143.893 30.16 144.32 28.2667 144.32 26.08C144.32 23.8933 143.88 22.0133 143 20.44C142.147 18.84 140.947 17.6 139.4 16.72C137.853 15.84 136.027 15.4 133.92 15.4H128.8V36.8ZM161.008 41.48C159.382 41.48 157.955 41.12 156.728 40.4C155.502 39.6533 154.542 38.6267 153.848 37.32C153.182 35.9867 152.848 34.4533 152.848 32.72V19.36H157.368V32.32C157.368 33.3067 157.568 34.1733 157.968 34.92C158.368 35.6667 158.928 36.2533 159.648 36.68C160.368 37.08 161.195 37.28 162.128 37.28C163.088 37.28 163.928 37.0667 164.648 36.64C165.368 36.2133 165.928 35.6133 166.328 34.84C166.755 34.0667 166.968 33.16 166.968 32.12V19.36H171.448V41H167.168V36.76L167.648 37.32C167.142 38.6533 166.302 39.68 165.128 40.4C163.955 41.12 162.582 41.48 161.008 41.48ZM186.086 41.24C183.819 41.24 182.059 40.6 180.806 39.32C179.553 38.04 178.926 36.24 178.926 33.92V23.44H175.126V19.36H175.726C176.739 19.36 177.526 19.0667 178.086 18.48C178.646 17.8933 178.926 17.0933 178.926 16.08V14.4H183.446V19.36H188.366V23.44H183.446V33.72C183.446 34.4667 183.566 35.1067 183.806 35.64C184.046 36.1467 184.433 36.5467 184.966 36.84C185.499 37.1067 186.193 37.24 187.046 37.24C187.259 37.24 187.499 37.2267 187.766 37.2C188.033 37.1733 188.286 37.1467 188.526 37.12V41C188.153 41.0533 187.739 41.1067 187.286 41.16C186.833 41.2133 186.433 41.24 186.086 41.24ZM202.297 41.24C200.03 41.24 198.27 40.6 197.017 39.32C195.764 38.04 195.137 36.24 195.137 33.92V23.44H191.337V19.36H191.937C192.95 19.36 193.737 19.0667 194.297 18.48C194.857 17.8933 195.137 17.0933 195.137 16.08V14.4H199.657V19.36H204.577V23.44H199.657V33.72C199.657 34.4667 199.777 35.1067 200.017 35.64C200.257 36.1467 200.644 36.5467 201.177 36.84C201.71 37.1067 202.404 37.24 203.257 37.24C203.47 37.24 203.71 37.2267 203.977 37.2C204.244 37.1733 204.497 37.1467 204.737 37.12V41C204.364 41.0533 203.95 41.1067 203.497 41.16C203.044 41.2133 202.644 41.24 202.297 41.24ZM215.433 41.48C213.966 41.48 212.673 41.2267 211.553 40.72C210.459 40.1867 209.606 39.4667 208.993 38.56C208.379 37.6267 208.073 36.5333 208.073 35.28C208.073 34.1067 208.326 33.0533 208.833 32.12C209.366 31.1867 210.179 30.4 211.273 29.76C212.366 29.12 213.739 28.6667 215.393 28.4L222.913 27.16V30.72L216.273 31.88C215.073 32.0933 214.193 32.48 213.633 33.04C213.073 33.5733 212.793 34.2667 212.793 35.12C212.793 35.9467 213.099 36.6267 213.713 37.16C214.353 37.6667 215.166 37.92 216.153 37.92C217.379 37.92 218.446 37.6533 219.353 37.12C220.286 36.5867 221.006 35.88 221.513 35C222.019 34.0933 222.273 33.0933 222.273 32V26.44C222.273 25.3733 221.873 24.5067 221.073 23.84C220.299 23.1467 219.259 22.8 217.953 22.8C216.753 22.8 215.699 23.12 214.793 23.76C213.913 24.3733 213.259 25.1733 212.833 26.16L209.073 24.28C209.473 23.2133 210.126 22.28 211.033 21.48C211.939 20.6533 212.993 20.0133 214.193 19.56C215.419 19.1067 216.713 18.88 218.072 18.88C219.779 18.88 221.286 19.2 222.593 19.84C223.926 20.48 224.953 21.3733 225.673 22.52C226.419 23.64 226.793 24.9467 226.793 26.44V41H222.473V37.08L223.393 37.2C222.886 38.08 222.233 38.84 221.433 39.48C220.659 40.12 219.766 40.6133 218.753 40.96C217.766 41.3067 216.659 41.48 215.433 41.48Z"/>
</mask>
<path d="M124.08 41H123.08V42H124.08V41ZM124.08 11.2V10.2H123.08V11.2H124.08ZM141.88 13.08L141.396 13.9552L141.408 13.9618L141.88 13.08ZM147.2 33.88L148.073 34.3683L148.075 34.3639L147.2 33.88ZM141.88 39.12L141.4 38.2425L141.396 38.2449L141.88 39.12ZM128.8 36.8H127.8V37.8H128.8V36.8ZM139.4 35.48L138.912 34.6072L138.905 34.6108L139.4 35.48ZM143.04 31.76L142.158 31.2894L143.04 31.76ZM143 20.44L142.118 20.9106L142.122 20.9194L142.127 20.9282L143 20.44ZM139.4 16.72L139.895 15.8508L139.895 15.8508L139.4 16.72ZM128.8 15.4V14.4H127.8V15.4H128.8ZM125.08 41V11.2H123.08V41H125.08ZM124.08 12.2H133.84V10.2H124.08V12.2ZM133.84 12.2C136.797 12.2 139.304 12.7982 141.396 13.9551L142.364 12.2049C139.923 10.8551 137.07 10.2 133.84 10.2V12.2ZM141.408 13.9618C143.536 15.0996 145.169 16.6974 146.327 18.7683L148.073 17.7917C146.725 15.3826 144.811 13.5138 142.352 12.1982L141.408 13.9618ZM146.327 18.7683C147.485 20.8376 148.08 23.2645 148.08 26.08H150.08C150.08 22.9755 149.422 20.2024 148.073 17.7917L146.327 18.7683ZM148.08 26.08C148.08 28.8668 147.486 31.2963 146.325 33.3961L148.075 34.3639C149.421 31.9304 150.08 29.1598 150.08 26.08H148.08ZM146.327 33.3917C145.168 35.4645 143.532 37.0776 141.4 38.2425L142.36 39.9975C144.815 38.6557 146.726 36.7755 148.073 34.3683L146.327 33.3917ZM141.396 38.2449C139.304 39.4018 136.797 40 133.84 40V42C137.07 42 139.923 41.3449 142.364 39.9951L141.396 38.2449ZM133.84 40H124.08V42H133.84V40ZM128.8 37.8H133.92V35.8H128.8V37.8ZM133.92 37.8C136.168 37.8 138.172 37.3295 139.895 36.3492L138.905 34.6108C137.535 35.3905 135.885 35.8 133.92 35.8V37.8ZM139.888 36.3528C141.63 35.3786 142.979 33.9986 143.922 32.2306L142.158 31.2894C141.394 32.7214 140.317 33.8214 138.912 34.6072L139.888 36.3528ZM143.922 32.2306C144.867 30.4588 145.32 28.3973 145.32 26.08H143.32C143.32 28.1361 142.919 29.8612 142.158 31.2894L143.922 32.2306ZM145.32 26.08C145.32 23.7586 144.852 21.7031 143.873 19.9518L142.127 20.9282C142.908 22.3236 143.32 24.028 143.32 26.08H145.32ZM143.882 19.9694C142.942 18.2059 141.609 16.8262 139.895 15.8508L138.905 17.5892C140.285 18.3738 141.352 19.4741 142.118 20.9106L143.882 19.9694ZM139.895 15.8508C138.172 14.8705 136.168 14.4 133.92 14.4V16.4C135.885 16.4 137.535 16.8095 138.905 17.5892L139.895 15.8508ZM133.92 14.4H128.8V16.4H133.92V14.4ZM127.8 15.4V36.8H129.8V15.4H127.8ZM156.728 40.4L156.208 41.2542L156.215 41.2584L156.222 41.2624L156.728 40.4ZM153.848 37.32L152.954 37.7672L152.959 37.778L152.965 37.7887L153.848 37.32ZM152.848 19.36V18.36H151.848V19.36H152.848ZM157.368 19.36H158.368V18.36H157.368V19.36ZM157.968 34.92L158.85 34.4478L157.968 34.92ZM159.648 36.68L159.139 37.5403L159.151 37.5474L159.163 37.5542L159.648 36.68ZM164.648 36.64L165.158 37.5003L164.648 36.64ZM166.328 34.84L165.453 34.3569L165.446 34.3687L165.44 34.3806L166.328 34.84ZM166.968 19.36V18.36H165.968V19.36H166.968ZM171.448 19.36H172.448V18.36H171.448V19.36ZM171.448 41V42H172.448V41H171.448ZM167.168 41H166.168V42H167.168V41ZM167.168 36.76L167.928 36.1092L166.168 34.0567V36.76H167.168ZM167.648 37.32L168.583 37.6752L168.794 37.1201L168.408 36.6692L167.648 37.32ZM165.128 40.4L165.651 41.2523L165.128 40.4ZM161.008 40.48C159.534 40.48 158.287 40.1552 157.235 39.5376L156.222 41.2624C157.623 42.0848 159.23 42.48 161.008 42.48V40.48ZM157.248 39.5458C156.18 38.8955 155.344 38.0041 154.732 36.8513L152.965 37.7887C153.74 39.2492 154.823 40.4111 156.208 41.2542L157.248 39.5458ZM154.743 36.8728C154.156 35.6993 153.848 34.3233 153.848 32.72H151.848C151.848 34.5833 152.207 36.2741 152.954 37.7672L154.743 36.8728ZM153.848 32.72V19.36H151.848V32.72H153.848ZM152.848 20.36H157.368V18.36H152.848V20.36ZM156.368 19.36V32.32H158.368V19.36H156.368ZM156.368 32.32C156.368 33.4442 156.597 34.478 157.087 35.3922L158.85 34.4478C158.54 33.8686 158.368 33.1692 158.368 32.32H156.368ZM157.087 35.3922C157.572 36.2977 158.26 37.0194 159.139 37.5403L160.158 35.8197C159.597 35.4872 159.165 35.0357 158.85 34.4478L157.087 35.3922ZM159.163 37.5542C160.05 38.0472 161.048 38.28 162.128 38.28V36.28C161.342 36.28 160.687 36.1128 160.134 35.8058L159.163 37.5542ZM162.128 38.28C163.241 38.28 164.262 38.0312 165.158 37.5003L164.139 35.7797C163.595 36.1021 162.936 36.28 162.128 36.28V38.28ZM165.158 37.5003C166.046 36.9741 166.734 36.2321 167.217 35.2994L165.44 34.3806C165.123 34.9945 164.691 35.4525 164.139 35.7797L165.158 37.5003ZM167.204 35.3231C167.726 34.3775 167.968 33.2989 167.968 32.12H165.968C165.968 33.0211 165.785 33.7558 165.453 34.3569L167.204 35.3231ZM167.968 32.12V19.36H165.968V32.12H167.968ZM166.968 20.36H171.448V18.36H166.968V20.36ZM170.448 19.36V41H172.448V19.36H170.448ZM171.448 40H167.168V42H171.448V40ZM168.168 41V36.76H166.168V41H168.168ZM166.409 37.4108L166.889 37.9708L168.408 36.6692L167.928 36.1092L166.409 37.4108ZM166.714 36.9648C166.282 38.0995 165.583 38.9477 164.605 39.5477L165.651 41.2523C167.02 40.4123 168.001 39.2072 168.583 37.6752L166.714 36.9648ZM164.605 39.5477C163.611 40.1579 162.424 40.48 161.008 40.48V42.48C162.739 42.48 164.299 42.0821 165.651 41.2523L164.605 39.5477ZM180.806 39.32L181.52 38.6204L180.806 39.32ZM178.926 23.44H179.926V22.44H178.926V23.44ZM175.126 23.44H174.126V24.44H175.126V23.44ZM175.126 19.36V18.36H174.126V19.36H175.126ZM178.086 18.48L177.363 17.7895L178.086 18.48ZM178.926 14.4V13.4H177.926V14.4H178.926ZM183.446 14.4H184.446V13.4H183.446V14.4ZM183.446 19.36H182.446V20.36H183.446V19.36ZM188.366 19.36H189.366V18.36H188.366V19.36ZM188.366 23.44V24.44H189.366V23.44H188.366ZM183.446 23.44V22.44H182.446V23.44H183.446ZM183.806 35.64L182.894 36.0504L182.898 36.0593L182.902 36.0681L183.806 35.64ZM184.966 36.84L184.484 37.7162L184.501 37.7257L184.519 37.7344L184.966 36.84ZM187.766 37.2L187.666 36.205L187.766 37.2ZM188.526 37.12H189.526V36.0027L188.416 36.1261L188.526 37.12ZM188.526 41L188.667 41.9899L189.526 41.8673V41H188.526ZM187.286 41.16L187.403 42.1532L187.286 41.16ZM186.086 40.24C184.013 40.24 182.539 39.6604 181.52 38.6204L180.091 40.0196C181.58 41.5396 183.626 42.24 186.086 42.24V40.24ZM181.52 38.6204C180.5 37.5777 179.926 36.0587 179.926 33.92H177.926C177.926 36.4213 178.606 38.5023 180.091 40.0196L181.52 38.6204ZM179.926 33.92V23.44H177.926V33.92H179.926ZM178.926 22.44H175.126V24.44H178.926V22.44ZM176.126 23.44V19.36H174.126V23.44H176.126ZM175.126 20.36H175.726V18.36H175.126V20.36ZM175.726 20.36C176.94 20.36 178.016 20.0018 178.809 19.1705L177.363 17.7895C177.036 18.1315 176.539 18.36 175.726 18.36V20.36ZM178.809 19.1705C179.588 18.3542 179.926 17.2832 179.926 16.08H177.926C177.926 16.9034 177.703 17.4324 177.363 17.7895L178.809 19.1705ZM179.926 16.08V14.4H177.926V16.08H179.926ZM178.926 15.4H183.446V13.4H178.926V15.4ZM182.446 14.4V19.36H184.446V14.4H182.446ZM183.446 20.36H188.366V18.36H183.446V20.36ZM187.366 19.36V23.44H189.366V19.36H187.366ZM188.366 22.44H183.446V24.44H188.366V22.44ZM182.446 23.44V33.72H184.446V23.44H182.446ZM182.446 33.72C182.446 34.5704 182.582 35.3576 182.894 36.0504L184.718 35.2296C184.55 34.8558 184.446 34.3629 184.446 33.72H182.446ZM182.902 36.0681C183.24 36.7812 183.783 37.3307 184.484 37.7162L185.448 35.9638C185.082 35.7626 184.852 35.5121 184.71 35.2119L182.902 36.0681ZM184.519 37.7344C185.238 38.0939 186.1 38.24 187.046 38.24V36.24C186.285 36.24 185.761 36.1195 185.413 35.9456L184.519 37.7344ZM187.046 38.24C187.3 38.24 187.574 38.2242 187.865 38.195L187.666 36.205C187.425 36.2291 187.219 36.24 187.046 36.24V38.24ZM187.865 38.195C188.135 38.168 188.392 38.141 188.636 38.1139L188.416 36.1261C188.18 36.1523 187.93 36.1786 187.666 36.205L187.865 38.195ZM187.526 37.12V41H189.526V37.12H187.526ZM188.385 40.0101C188.021 40.062 187.616 40.1143 187.169 40.1669L187.403 42.1532C187.863 42.099 188.284 42.0447 188.667 41.9899L188.385 40.0101ZM187.169 40.1669C186.743 40.217 186.384 40.24 186.086 40.24V42.24C186.482 42.24 186.922 42.2097 187.403 42.1532L187.169 40.1669ZM197.017 39.32L197.731 38.6204L197.017 39.32ZM195.137 23.44H196.137V22.44H195.137V23.44ZM191.337 23.44H190.337V24.44H191.337V23.44ZM191.337 19.36V18.36H190.337V19.36H191.337ZM194.297 18.48L193.574 17.7895L194.297 18.48ZM195.137 14.4V13.4H194.137V14.4H195.137ZM199.657 14.4H200.657V13.4H199.657V14.4ZM199.657 19.36H198.657V20.36H199.657V19.36ZM204.577 19.36H205.577V18.36H204.577V19.36ZM204.577 23.44V24.44H205.577V23.44H204.577ZM199.657 23.44V22.44H198.657V23.44H199.657ZM200.017 35.64L199.105 36.0504L199.109 36.0593L199.113 36.0681L200.017 35.64ZM201.177 36.84L200.695 37.7162L200.712 37.7257L200.73 37.7344L201.177 36.84ZM203.977 37.2L203.877 36.205L203.977 37.2ZM204.737 37.12H205.737V36.0027L204.626 36.1261L204.737 37.12ZM204.737 41L204.878 41.9899L205.737 41.8673V41H204.737ZM203.497 41.16L203.614 42.1532L203.497 41.16ZM202.297 40.24C200.224 40.24 198.75 39.6604 197.731 38.6204L196.302 40.0196C197.791 41.5396 199.837 42.24 202.297 42.24V40.24ZM197.731 38.6204C196.71 37.5777 196.137 36.0587 196.137 33.92H194.137C194.137 36.4213 194.817 38.5023 196.302 40.0196L197.731 38.6204ZM196.137 33.92V23.44H194.137V33.92H196.137ZM195.137 22.44H191.337V24.44H195.137V22.44ZM192.337 23.44V19.36H190.337V23.44H192.337ZM191.337 20.36H191.937V18.36H191.337V20.36ZM191.937 20.36C193.151 20.36 194.227 20.0018 195.02 19.1705L193.574 17.7895C193.247 18.1315 192.749 18.36 191.937 18.36V20.36ZM195.02 19.1705C195.799 18.3542 196.137 17.2832 196.137 16.08H194.137C194.137 16.9034 193.914 17.4324 193.574 17.7895L195.02 19.1705ZM196.137 16.08V14.4H194.137V16.08H196.137ZM195.137 15.4H199.657V13.4H195.137V15.4ZM198.657 14.4V19.36H200.657V14.4H198.657ZM199.657 20.36H204.577V18.36H199.657V20.36ZM203.577 19.36V23.44H205.577V19.36H203.577ZM204.577 22.44H199.657V24.44H204.577V22.44ZM198.657 23.44V33.72H200.657V23.44H198.657ZM198.657 33.72C198.657 34.5704 198.793 35.3576 199.105 36.0504L200.929 35.2296C200.761 34.8558 200.657 34.3629 200.657 33.72H198.657ZM199.113 36.0681C199.451 36.7812 199.994 37.3307 200.695 37.7162L201.659 35.9638C201.293 35.7626 201.063 35.5121 200.921 35.2119L199.113 36.0681ZM200.73 37.7344C201.449 38.0939 202.311 38.24 203.257 38.24V36.24C202.496 36.24 201.972 36.1195 201.624 35.9456L200.73 37.7344ZM203.257 38.24C203.511 38.24 203.785 38.2242 204.076 38.195L203.877 36.205C203.636 36.2291 203.43 36.24 203.257 36.24V38.24ZM204.076 38.195C204.346 38.168 204.603 38.141 204.847 38.1139L204.626 36.1261C204.39 36.1523 204.141 36.1786 203.877 36.205L204.076 38.195ZM203.737 37.12V41H205.737V37.12H203.737ZM204.595 40.0101C204.232 40.062 203.827 40.1143 203.38 40.1669L203.614 42.1532C204.074 42.099 204.495 42.0447 204.878 41.9899L204.595 40.0101ZM203.38 40.1669C202.954 40.217 202.595 40.24 202.297 40.24V42.24C202.693 42.24 203.133 42.2097 203.614 42.1532L203.38 40.1669ZM211.552 40.72L211.114 41.6188L211.127 41.6251L211.14 41.6311L211.552 40.72ZM208.993 38.56L208.157 39.1092L208.164 39.1203L208.993 38.56ZM208.832 32.12L207.964 31.6239L207.959 31.6333L207.954 31.6429L208.832 32.12ZM211.272 29.76L210.767 28.897L211.272 29.76ZM215.393 28.4L215.552 29.3872L215.555 29.3867L215.393 28.4ZM222.912 27.16H223.912V25.9816L222.75 26.1733L222.912 27.16ZM222.912 30.72L223.085 31.7051L223.912 31.5604V30.72H222.912ZM216.272 31.88L216.1 30.8949L216.097 30.8954L216.272 31.88ZM213.632 33.04L214.322 33.7641L214.331 33.7557L214.34 33.7471L213.632 33.04ZM213.713 37.16L213.056 37.9146L213.074 37.9297L213.092 37.944L213.713 37.16ZM219.353 37.12L218.856 36.2517L218.845 36.2581L219.353 37.12ZM221.513 35L222.379 35.499L222.385 35.4878L221.513 35ZM221.073 23.84L220.405 24.5846L220.418 24.5966L220.432 24.6082L221.073 23.84ZM214.793 23.76L215.364 24.5804L215.369 24.577L214.793 23.76ZM212.832 26.16L212.385 27.0544L213.331 27.5272L213.75 26.5569L212.832 26.16ZM209.073 24.28L208.136 23.9289L207.82 24.7718L208.625 25.1744L209.073 24.28ZM211.033 21.48L211.694 22.2298L211.7 22.2244L211.706 22.219L211.033 21.48ZM214.192 19.56L213.846 18.622L213.839 18.6245L214.192 19.56ZM222.592 19.84L222.153 20.7381L222.16 20.7415L222.592 19.84ZM225.673 22.52L224.826 23.0518L224.833 23.0633L224.84 23.0747L225.673 22.52ZM226.793 41V42H227.793V41H226.793ZM222.473 41H221.473V42H222.473V41ZM222.473 37.08L222.602 36.0884L221.473 35.9411V37.08H222.473ZM223.393 37.2L224.259 37.699L225.006 36.402L223.522 36.2084L223.393 37.2ZM221.433 39.48L220.808 38.6991L220.801 38.7043L220.795 38.7096L221.433 39.48ZM218.753 40.96L218.429 40.0138L218.421 40.0165L218.753 40.96ZM215.433 40.48C214.081 40.48 212.933 40.2468 211.965 39.8089L211.14 41.6311C212.412 42.2066 213.851 42.48 215.433 42.48V40.48ZM211.991 39.8212C211.037 39.3559 210.325 38.7457 209.821 37.9997L208.164 39.1203C208.886 40.1877 209.881 41.0174 211.114 41.6188L211.991 39.8212ZM209.828 38.0108C209.335 37.2601 209.073 36.3628 209.073 35.28H207.073C207.073 36.7038 207.423 37.9933 208.157 39.1092L209.828 38.0108ZM209.073 35.28C209.073 34.2555 209.292 33.3691 209.711 32.5971L207.954 31.6429C207.359 32.7376 207.073 33.9579 207.073 35.28H209.073ZM209.701 32.6161C210.133 31.8599 210.808 31.1905 211.778 30.623L210.767 28.897C209.55 29.6095 208.599 30.5134 207.964 31.6239L209.701 32.6161ZM211.778 30.623C212.736 30.062 213.983 29.6402 215.552 29.3872L215.233 27.4128C213.495 27.6931 211.996 28.178 210.767 28.897L211.778 30.623ZM215.555 29.3867L223.075 28.1467L222.75 26.1733L215.23 27.4133L215.555 29.3867ZM221.912 27.16V30.72H223.912V27.16H221.912ZM222.74 29.7349L216.1 30.8949L216.445 32.8651L223.085 31.7051L222.74 29.7349ZM216.097 30.8954C214.797 31.1266 213.689 31.5693 212.925 32.3329L214.34 33.7471C214.696 33.3907 215.348 33.0601 216.448 32.8646L216.097 30.8954ZM212.943 32.3159C212.163 33.0585 211.793 34.0243 211.793 35.12H213.793C213.793 34.509 213.982 34.0882 214.322 33.7641L212.943 32.3159ZM211.793 35.12C211.793 36.2304 212.22 37.1877 213.056 37.9146L214.369 36.4054C213.978 36.0657 213.793 35.6629 213.793 35.12H211.793ZM213.092 37.944C213.943 38.618 214.989 38.92 216.153 38.92V36.92C215.343 36.92 214.762 36.7153 214.333 36.376L213.092 37.944ZM216.153 38.92C217.527 38.92 218.775 38.6197 219.86 37.9819L218.845 36.2581C218.116 36.6869 217.231 36.92 216.153 36.92V38.92ZM219.849 37.9882C220.927 37.3722 221.779 36.5419 222.379 35.499L220.646 34.501C220.233 35.2181 219.645 35.8011 218.856 36.2518L219.849 37.9882ZM222.385 35.4878C222.98 34.4241 223.272 33.2548 223.272 32H221.272C221.272 32.9319 221.058 33.7625 220.64 34.5122L222.385 35.4878ZM223.272 32V26.44H221.272V32H223.272ZM223.272 26.44C223.272 25.0849 222.747 23.9337 221.713 23.0718L220.432 24.6082C220.998 25.0796 221.272 25.6618 221.272 26.44H223.272ZM221.74 23.0954C220.739 22.1984 219.44 21.8 217.952 21.8V23.8C219.079 23.8 219.859 24.095 220.405 24.5846L221.74 23.0954ZM217.952 21.8C216.564 21.8 215.305 22.1741 214.216 22.943L215.369 24.577C216.093 24.0659 216.941 23.8 217.952 23.8V21.8ZM214.221 22.9396C213.188 23.6594 212.415 24.6062 211.915 25.7631L213.75 26.5569C214.103 25.7404 214.637 25.0872 215.364 24.5804L214.221 22.9396ZM213.28 25.2656L209.52 23.3856L208.625 25.1744L212.385 27.0544L213.28 25.2656ZM210.009 24.6311C210.348 23.7273 210.903 22.9283 211.694 22.2298L210.371 20.7302C209.349 21.6317 208.597 22.6994 208.136 23.9289L210.009 24.6311ZM211.706 22.219C212.515 21.4813 213.459 20.9062 214.546 20.4955L213.839 18.6245C212.526 19.1205 211.363 19.8254 210.359 20.741L211.706 22.219ZM214.539 20.498C215.65 20.0873 216.826 19.88 218.073 19.88V17.88C216.599 17.88 215.188 18.126 213.846 18.622L214.539 20.498ZM218.073 19.88C219.653 19.88 221.005 20.1758 222.153 20.7381L223.032 18.9419C221.567 18.2242 219.905 17.88 218.073 17.88V19.88ZM222.16 20.7415C223.339 21.3077 224.215 22.0796 224.826 23.0518L226.519 21.9882C225.69 20.667 224.512 19.6523 223.025 18.9385L222.16 20.7415ZM224.84 23.0747C225.466 24.0127 225.793 25.1217 225.793 26.44H227.793C227.793 24.7717 227.373 23.2673 226.505 21.9653L224.84 23.0747ZM225.793 26.44V41H227.793V26.44H225.793ZM226.793 40H222.473V42H226.793V40ZM223.473 41V37.08H221.473V41H223.473ZM222.343 38.0716L223.263 38.1916L223.522 36.2084L222.602 36.0884L222.343 38.0716ZM222.526 36.701C222.082 37.4718 221.511 38.1365 220.808 38.6991L222.057 40.2609C222.954 39.5435 223.69 38.6882 224.259 37.699L222.526 36.701ZM220.795 38.7096C220.121 39.2675 219.335 39.7037 218.429 40.0138L219.076 41.9062C220.196 41.523 221.198 40.9725 222.07 40.2504L220.795 38.7096ZM218.421 40.0165C217.557 40.3199 216.565 40.48 215.433 40.48V42.48C216.753 42.48 217.974 42.2934 219.084 41.9035L218.421 40.0165Z" fill="#01F3B0" mask="url(#path-2-outside-1_416_7)"/>
</svg>
